<?xml version="1.0" encoding="utf-8"?>

<!DOCTYPE svg PUBLIC "-//W3C//DTD SVG 1.0//EN" "http://www.w3.org/TR/2001/REC-SVG-20010904/DTD/svg10.dtd">
<!-- Uploaded to: SVG Repo, www.svgrepo.com, Generator: SVG Repo Mixer Tools -->
<svg version="1.0" id="Layer_1" xmlns="http://www.w3.org/2000/svg" xmlns:xlink="http://www.w3.org/1999/xlink" 
	 width="800px" height="800px" viewBox="0 0 64 64" enable-background="new 0 0 64 64" xml:space="preserve">
<g>
	<path fill="#394240" d="M64,20C64,8.953,55.047,0,44,0c-5.449,0-10.375,2.191-13.98,5.723L30,5.703L5.879,29.84
		C2.25,33.461,0,38.465,0,44c0,11.047,8.953,20,20,20c5.535,0,10.539-2.25,14.16-5.879L58.297,34l-0.02-0.02
		C61.809,30.375,64,25.445,64,20z M28.496,52.469C26.227,54.746,23.207,56,20,56c-6.617,0-12-5.383-12-12
		c0-3.207,1.254-6.227,3.539-8.5l9.148-9.156l16.969,16.969L28.496,52.469z M52.562,28.383c-0.137,0.141-0.27,0.281-0.391,0.43
		l-8.855,8.852L26.34,20.684l8.848-8.848c0.145-0.129,0.289-0.262,0.43-0.398C37.883,9.219,40.859,8,44,8c6.617,0,12,5.383,12,12
		C56,23.141,54.777,26.117,52.562,28.383z"/>
	<path fill="#F76D57" d="M28.496,52.469C26.227,54.746,23.207,56,20,56c-6.617,0-12-5.383-12-12c0-3.207,1.254-6.227,3.539-8.5
		l9.148-9.156l16.969,16.969L28.496,52.469z"/>
	<path fill="#F9EBB2" d="M52.562,28.383c-0.137,0.141-0.27,0.281-0.391,0.43l-8.855,8.852L26.34,20.684l8.848-8.848
		c0.145-0.129,0.289-0.262,0.43-0.398C37.883,9.219,40.859,8,44,8c6.617,0,12,5.383,12,12C56,23.141,54.777,26.117,52.562,28.383z"
		/>
</g>
</svg>