<?xml version="1.0" encoding="iso-8859-1"?>
<!-- Uploaded to: SVG Repo, www.svgrepo.com, Generator: SVG Repo Mixer Tools -->
<svg height="800px" width="800px" version="1.1" id="Layer_1" xmlns="http://www.w3.org/2000/svg" xmlns:xlink="http://www.w3.org/1999/xlink" 
	 viewBox="0 0 392.598 392.598" xml:space="preserve">
<path style="fill:#FFFFFF;" d="M192.039,231.176l75.96-74.279V32.776c0-6.012-4.848-10.925-10.925-10.925H32.75
	c-6.012,0-10.925,4.848-10.925,10.925v327.111c0,6.012,4.848,10.925,10.925,10.925h224.388c6.012,0,10.925-4.848,10.925-10.925
	V258.521l-25.212,24.63c-2.004,2.004-4.784,3.103-7.628,3.103c-0.065,0-0.065,0-0.129,0l-35.943-0.388
	c-6.012-0.065-10.796-5.042-10.731-11.055l0.453-36.008C188.807,235.96,189.971,233.18,192.039,231.176z"/>
<path style="fill:#56ACE0;" d="M192.039,231.176l54.174-52.945V43.572H43.676v305.325h202.537V279.79l-3.426,3.297
	c-2.004,2.004-4.784,3.103-7.628,3.103c-0.065,0-0.065,0-0.129,0l-35.943-0.388c-6.012-0.065-10.796-5.042-10.731-11.055
	l0.453-36.008C188.807,235.96,189.971,233.18,192.039,231.176z"/>
<g>
	<path style="fill:#194F82;" d="M119.959,88.113h-12.994V74.537c0-6.012-4.848-10.925-10.925-10.925
		c-6.012,0-10.925,4.848-10.925,10.925v13.576H72.185c-6.012,0-10.925,4.848-10.925,10.925c0,6.077,4.848,10.925,10.925,10.925
		h12.994v13.705c0,6.012,4.848,10.925,10.925,10.925c6.012,0,10.925-4.848,10.925-10.925v-13.705h12.994
		c6.012,0,10.925-4.848,10.925-10.925C130.948,92.962,125.971,88.113,119.959,88.113z"/>
	<path style="fill:#194F82;" d="M206.714,188.251H71.021c-6.012,0-10.925-4.848-10.925-10.925S64.944,166.4,71.021,166.4h135.758
		c6.012,0,10.925,4.848,10.925,10.925S212.791,188.251,206.714,188.251z"/>
	<path style="fill:#194F82;" d="M155.643,253.608H71.021c-6.012,0-10.925-4.848-10.925-10.925c0-6.012,4.848-10.925,10.925-10.925
		h84.622c6.012,0,10.925,4.848,10.925,10.925S161.656,253.608,155.643,253.608z"/>
	<path style="fill:#194F82;" d="M218.868,319.03H71.021c-6.012,0-10.925-4.848-10.925-10.925c0-6.012,4.848-10.925,10.925-10.925
		h147.911c6.012,0,10.925,4.848,10.925,10.925C229.793,314.182,224.88,319.03,218.868,319.03z"/>
	<path style="fill:#194F82;" d="M218.868,122.764h-67.943c-6.012,0-10.925-4.848-10.925-10.925c0-6.012,4.848-10.925,10.925-10.925
		h67.943c6.012,0,10.925,4.848,10.925,10.925C229.793,117.915,224.88,122.764,218.868,122.764z"/>
	<path style="fill:#194F82;" d="M382.229,96.129c-14.545-15.903-37.818-14.222-51.394-0.646l-41.051,40.081V32.776
		C289.785,14.675,275.175,0,257.074,0H32.75C14.714,0,0.039,14.675,0.039,32.776v327.111c0,18.036,14.675,32.711,32.711,32.711
		h224.388c18.036,0,32.711-14.675,32.711-32.776v-122.57l91.798-89.729C395.999,133.495,396.193,110.416,382.229,96.129z
		 M267.999,359.758c0,6.012-4.848,10.925-10.925,10.925H32.75c-6.012,0-10.925-4.848-10.925-10.925V32.776
		c0-6.012,4.848-10.925,10.925-10.925h224.388c6.012,0,10.925,4.848,10.925,10.925v124.186l-76.024,74.214
		c-2.069,2.004-3.232,4.784-3.297,7.628l-0.453,36.008c-0.065,6.012,4.784,10.99,10.731,11.055l35.943,0.388
		c0.065,0,0.065,0,0.129,0c2.844,0,5.56-1.099,7.628-3.103l25.212-24.63v101.236L267.999,359.758L267.999,359.758z M230.763,264.404
		l-20.558-0.259l0.259-20.558l114.489-111.838l20.299,20.816L230.763,264.404z M366.391,131.879l-5.495,5.301l-20.299-20.816
		l5.495-5.43c5.56-5.43,15.063-5.301,20.558,0.259C372.274,117.075,372.08,126.255,366.391,131.879z"/>
</g>
<g>
	<path style="fill:#FFC10D;" d="M366.391,131.879c5.689-5.56,5.883-14.804,0.259-20.558c-5.43-5.56-14.998-5.624-20.558-0.259
		l-5.495,5.43l20.299,20.816L366.391,131.879z"/>
	<polygon style="fill:#FFC10D;" points="325.017,131.685 210.528,243.653 210.27,264.21 230.763,264.404 345.316,152.501 	"/>
</g>
</svg>