<?xml version="1.0" encoding="utf-8"?>

<!DOCTYPE svg PUBLIC "-//W3C//DTD SVG 1.0//EN" "http://www.w3.org/TR/2001/REC-SVG-20010904/DTD/svg10.dtd">
<!-- Uploaded to: SVG Repo, www.svgrepo.com, Generator: SVG Repo Mixer Tools -->
<svg version="1.0" id="Layer_1" xmlns="http://www.w3.org/2000/svg" xmlns:xlink="http://www.w3.org/1999/xlink" 
	 width="800px" height="800px" viewBox="0 0 64 64" enable-background="new 0 0 64 64" xml:space="preserve">
<g>
	<rect x="8" y="24" fill="#F76D57" width="48" height="32"/>
	<g>
		<path fill="#394240" d="M60,16H48V4c0-2.211-1.789-4-4-4H20c-2.211,0-4,1.789-4,4v12H4c-2.211,0-4,1.789-4,4v40
			c0,2.211,1.789,4,4,4h56c2.211,0,4-1.789,4-4V20C64,17.789,62.211,16,60,16z M24,8h16v8H24V8z M56,56H8V24h48V56z"/>
		<path fill="#394240" d="M24,44h4v4c0,2.211,1.789,4,4,4s4-1.789,4-4v-4h4c2.211,0,4-1.789,4-4s-1.789-4-4-4h-4v-4
			c0-2.211-1.789-4-4-4s-4,1.789-4,4v4h-4c-2.211,0-4,1.789-4,4S21.789,44,24,44z"/>
	</g>
</g>
</svg>