<?xml version="1.0" encoding="iso-8859-1"?>
<!-- Uploaded to: SVG Repo, www.svgrepo.com, Generator: SVG Repo Mixer Tools -->
<svg version="1.1" id="Layer_1" xmlns="http://www.w3.org/2000/svg" xmlns:xlink="http://www.w3.org/1999/xlink" 
	 viewBox="0 0 392.587 392.587" xml:space="preserve">
<path style="fill:#FFFFFF;" d="M218.558,370.645V135.72H49.96v234.925h39.111v-98.133c0-6.012,4.848-10.925,10.925-10.925h68.525
	c6.012,0,10.925,4.848,10.925,10.925v98.133H218.558z"/>
<g>
	<path style="fill:#194F82;" d="M108.401,215.105h15.063v15.063c0,6.012,4.848,10.925,10.925,10.925s10.925-4.848,10.925-10.925
		v-15.063h15.063c6.012,0,10.925-4.848,10.925-10.925c0-6.077-4.848-10.925-10.925-10.925h-15.063v-15.063
		c0-6.012-4.848-10.925-10.925-10.925s-10.925,4.848-10.925,10.925v15.063h-15.063c-6.012,0-10.925,4.848-10.925,10.925
		C97.475,210.257,102.389,215.105,108.401,215.105z"/>
	<path style="fill:#194F82;" d="M381.661,151.041H240.409V135.72h17.261c0.065,0,0.065,0,0.065,0
		c10.343-0.517,14.158-11.572,7.952-18.295L223.471,4.617c-2.069-2.844-5.301-4.59-8.792-4.59H53.904
		c-3.491,0-6.788,1.681-8.792,4.59L2.122,118.524c-5.624,8.016,0.84,17.325,8.792,17.325h17.261v245.786
		c0,6.012,4.848,10.925,10.925,10.925h342.562c6.012,0,10.925-4.848,10.925-10.925V161.901
		C392.522,155.889,387.673,151.041,381.661,151.041z M157.726,370.645h-46.804v-87.143h46.739v87.143H157.726z M218.558,370.645
		h-39.111v-98.133c0-6.012-4.848-10.925-10.925-10.925H99.997c-6.012,0-10.925,4.848-10.925,10.925v98.133H49.96V135.72h168.533
		v234.925H218.558z M32.312,113.934l27.216-92.121h149.527l27.281,92.121H32.312z M370.736,370.645H240.409V172.827h130.327V370.645
		z"/>
</g>
<g>
	<rect x="110.857" y="283.501" style="fill:#56ACE0;" width="46.739" height="87.143"/>
	<rect x="240.409" y="172.827" style="fill:#56ACE0;" width="130.327" height="197.818"/>
</g>
<g>
	<path style="fill:#194F82;" d="M270.663,215.105h13.382c6.012,0,10.925-4.848,10.925-10.925c0-6.077-4.848-10.925-10.925-10.925
		h-13.382c-6.012,0-10.925,4.848-10.925,10.925C259.738,210.257,264.651,215.105,270.663,215.105z"/>
	<path style="fill:#194F82;" d="M270.663,260.164h13.382c6.012,0,10.925-4.848,10.925-10.925c0-6.077-4.848-10.925-10.925-10.925
		h-13.382c-6.012,0-10.925,4.848-10.925,10.925C259.738,255.315,264.651,260.164,270.663,260.164z"/>
	<path style="fill:#194F82;" d="M270.663,305.158h13.382c6.012,0,10.925-4.848,10.925-10.925c0-6.012-4.848-10.925-10.925-10.925
		h-13.382c-6.012,0-10.925,4.849-10.925,10.925C259.803,300.309,264.651,305.158,270.663,305.158z"/>
	<path style="fill:#194F82;" d="M270.663,350.217h13.382c6.012,0,10.925-4.848,10.925-10.925c0-6.012-4.848-10.925-10.925-10.925
		h-13.382c-6.012,0-10.925,4.849-10.925,10.925C259.803,345.368,264.651,350.217,270.663,350.217z"/>
	<path style="fill:#194F82;" d="M327.1,215.105h13.317c6.012,0,10.925-4.848,10.925-10.925c0-6.077-4.848-10.925-10.925-10.925
		h-13.382c-6.012,0-10.925,4.848-10.925,10.925C316.11,210.257,321.023,215.105,327.1,215.105z"/>
	<path style="fill:#194F82;" d="M327.1,260.164h13.317c6.012,0,10.925-4.848,10.925-10.925c0-6.077-4.848-10.925-10.925-10.925
		h-13.382c-6.012,0-10.925,4.848-10.925,10.925C316.11,255.315,321.023,260.164,327.1,260.164z"/>
	<path style="fill:#194F82;" d="M327.1,305.158h13.317c6.012,0,10.925-4.848,10.925-10.925c0-6.012-4.848-10.925-10.925-10.925
		h-13.382c-6.012,0-10.925,4.849-10.925,10.925C316.174,300.309,321.023,305.158,327.1,305.158z"/>
	<path style="fill:#194F82;" d="M327.1,350.217h13.317c6.012,0,10.925-4.848,10.925-10.925c0-6.012-4.848-10.925-10.925-10.925
		h-13.382c-6.012,0-10.925,4.849-10.925,10.925C316.174,345.368,321.023,350.217,327.1,350.217z"/>
</g>
<polygon style="fill:#FFC10D;" points="59.463,21.812 32.312,113.934 236.271,113.934 209.055,21.812 "/>
</svg>