<?xml version="1.0" encoding="utf-8"?>

<!DOCTYPE svg PUBLIC "-//W3C//DTD SVG 1.0//EN" "http://www.w3.org/TR/2001/REC-SVG-20010904/DTD/svg10.dtd">
<!-- Uploaded to: SVG Repo, www.svgrepo.com, Generator: SVG Repo Mixer Tools -->
<svg version="1.0" id="Layer_1" xmlns="http://www.w3.org/2000/svg" xmlns:xlink="http://www.w3.org/1999/xlink" 
	 width="800px" height="800px" viewBox="0 0 64 64" enable-background="new 0 0 64 64" xml:space="preserve">
<g>
	<path fill="#F9EBB2" d="M47.999,48.613L15.652,54l10.3-10.297C26.612,43.875,27.288,44,27.999,44c4.41,0,8-3.59,8-8s-3.59-8-8-8
		s-8,3.59-8,8c0,0.711,0.125,1.391,0.297,2.047l-10.3,10.297L15.386,16h14.957l17.656,17.656V48.613z"/>
	<path fill="#394240" d="M34.827,9.172C34.077,8.422,33.062,8,31.999,8H12c-1.957,0-3.625,1.414-3.945,3.344l-8,48
		c-0.211,1.273,0.203,2.57,1.117,3.484C1.929,63.586,2.949,64,4,64c0.219,0,0.438-0.02,0.656-0.055l48-8
		c1.93-0.32,3.344-1.988,3.344-3.945V32c0-1.062-0.422-2.078-1.172-2.828L34.827,9.172z M47.999,48.613L15.652,54l10.3-10.297
		C26.612,43.875,27.288,44,27.999,44c4.41,0,8-3.59,8-8s-3.59-8-8-8s-8,3.59-8,8c0,0.711,0.125,1.391,0.297,2.047l-10.3,10.297
		L15.386,16h14.957l17.656,17.656V48.613z"/>
	<path fill="#394240" d="M62.827,17.172l-16-16c-1.562-1.562-4.094-1.562-5.656,0s-1.562,4.094,0,5.656l16,16
		C57.952,23.609,58.976,24,59.999,24s2.047-0.391,2.828-1.172C64.39,21.266,64.39,18.734,62.827,17.172z"/>
</g>
</svg>