<?xml version="1.0" encoding="iso-8859-1"?>
<!-- Uploaded to: SVG Repo, www.svgrepo.com, Generator: SVG Repo Mixer Tools -->
<svg height="800px" width="800px" version="1.1" id="Layer_1" xmlns="http://www.w3.org/2000/svg" xmlns:xlink="http://www.w3.org/1999/xlink" 
	 viewBox="0 0 392.53 392.53" xml:space="preserve">
<path style="fill:#FFFFFF;" d="M361.016,257.552c5.301,0,9.632-4.331,9.632-9.632V31.418c0-5.301-4.331-9.632-9.632-9.632H31.706
	c-5.301,0-9.632,4.331-9.632,9.632v164.073h71.693c6.012,0,10.925,4.848,10.925,10.925v51.071h78.352
	c-2.651-8.145-4.073-16.679-4.073-25.665c0-46.158,37.56-83.717,83.782-83.717c46.158,0,83.782,37.56,83.782,83.717
	c0,8.986-1.487,17.648-4.073,25.665h18.683v0.065H361.016z"/>
<path style="fill:#56ACE0;" d="M108.183,235.766h70.788c-0.065-1.293-0.129-2.521-0.129-3.879c0-46.158,37.56-83.717,83.782-83.717
	c46.158,0,83.782,37.56,83.782,83.717c0,0,0,0,0,0.065c1.616-1.939,2.65-4.331,2.65-7.046V54.497
	c0-6.012-4.848-10.925-10.925-10.925H54.656c-6.012,0-10.925,4.848-10.925,10.925v130.198c0,3.426,1.616,6.659,4.331,8.727"/>
<g>
	<path style="fill:#194F82;" d="M316.797,82.23H75.925c-6.012,0-10.925-4.848-10.925-10.925c0-6.077,4.848-10.925,10.925-10.925
		h240.937c6.012,0,10.925,4.848,10.925,10.925C327.787,77.382,322.874,82.23,316.797,82.23z"/>
	<path style="fill:#194F82;" d="M316.797,128.259H75.925c-6.012,0-10.925-4.848-10.925-10.925c0-6.012,4.848-10.925,10.925-10.925
		h240.937c6.012,0,10.925,4.848,10.925,10.925C327.723,123.41,322.874,128.259,316.797,128.259z"/>
	<path style="fill:#194F82;" d="M174.575,174.416H75.925c-6.012,0-10.925-4.848-10.925-10.925c0-6.012,4.848-10.925,10.925-10.925
		h98.651c6.012,0,10.925,4.848,10.925,10.925C185.436,169.503,180.587,174.416,174.575,174.416z"/>
	<path style="fill:#194F82;" d="M361.016,0H31.706C14.317,0,0.159,14.158,0.159,31.418v164.137c0,10.214,4.848,20.04,13.059,26.117
		l68.073,51.071c5.624,4.267,12.606,6.594,19.653,6.594h92.703c6.788,9.891,15.774,18.23,26.053,24.436v77.705
		c-0.259,8.857,10.602,15.127,18.36,7.887l24.436-23.273l24.436,23.273c8.404,7.499,19.006-0.259,18.36-7.887v-77.705
		c10.343-6.206,19.265-14.545,26.053-24.436h29.608c17.39,0,31.418-14.158,31.418-31.418V31.418C392.563,14.158,378.405,0,361.016,0
		z M82.777,246.626l-39.046-29.285h39.046V246.626z M283.634,356.008l-13.576-12.865c-4.202-4.008-10.796-4.008-15.063,0
		l-13.511,12.8v-43.055c6.723,1.745,13.77,2.715,21.01,2.715c7.24,0,14.287-0.905,21.01-2.715v43.055h0.129V356.008z
		 M262.559,293.754c-34.133,0-61.867-27.798-61.867-61.867s27.798-61.867,61.867-61.867c34.133,0,61.867,27.798,61.867,61.867
		S296.757,293.754,262.559,293.754z M370.777,247.855c0,5.301-4.331,9.632-9.632,9.632h-18.877
		c2.65-8.145,4.073-16.679,4.073-25.665c0-46.158-37.56-83.717-83.782-83.717s-83.782,37.56-83.782,83.717
		c0,8.986,1.487,17.648,4.073,25.665h-78.287v-51.071c0-6.012-4.848-10.925-10.925-10.925H21.945V31.418
		c0-5.301,4.331-9.632,9.632-9.632h329.438c5.301,0,9.632,4.331,9.632,9.632v216.436H370.777z"/>
</g>
<g>
	<path style="fill:#FFC10D;" d="M241.549,312.954v43.119l13.511-12.8c4.202-4.008,10.796-4.008,15.063,0l13.511,12.8v-43.119
		c-6.723,1.745-13.77,2.715-21.01,2.715C255.319,315.604,248.272,314.634,241.549,312.954z"/>
	<path style="fill:#FFC10D;" d="M262.559,170.02c-34.133,0-61.867,27.798-61.867,61.867s27.798,61.867,61.867,61.867
		c34.133,0,61.867-27.798,61.867-61.867S296.757,170.02,262.559,170.02z"/>
</g>
<polygon style="fill:#FFFFFF;" points="82.777,217.341 43.731,217.341 82.777,246.626 "/>
</svg>